name processed_emg_signals
nRows=83
nColumns=7
 
endheader
time	RGLTMED	RRF	RADDLONG	RST	RTA	RGM
3.2251999999999974	0.0064844634721435	0.0168165928683503	0.1605445460217422	0.0151159578752156	0.0196886308067367	0.016851978805481
3.2351999999999976	0.0064874946532728	0.0167619742907748	0.1610180670954267	0.0150827125343585	0.0196723440932759	0.0168334721731291
3.2451999999999974	0.0064909198992903	0.0167073385017015	0.161488162726378	0.0150489465259898	0.0196564534177345	0.0168174278498769
3.2551999999999977	0.0064947287473762	0.0166527419551556	0.1619551862480814	0.0150147032289242	0.0196409963110442	0.016803839426112
3.2651999999999974	0.0064989106490385	0.0165982404245169	0.1624194817441265	0.0149800265225672	0.0196260082399415	0.0167926980771148
3.2751999999999977	0.0065034549789983	0.0165438888942692	0.1628813825394298	0.0149449606813503	0.0196115225211834	0.0167839925309145
3.2851999999999975	0.0065083510426438	0.0164897414544463	0.163341209760479	0.0149095502686293	0.0195975702442069	0.0167777090379118
3.2951999999999977	0.006513588082153	0.0164358511981387	0.1637992709690539	0.0148738400305464	0.0195841802025429	0.0167738313427422
3.3051999999999975	0.0065191552813796	0.0163822701223885	0.1642558588732815	0.0148378747903386	0.0195713788342353	0.0167723406588219
3.3151999999999977	0.0065250417696002	0.0163290490327603	0.1647112501192945	0.0148016993435565	0.0195591901714674	0.0167732156459889
3.3251999999999975	0.0065312366242253	0.0162762374518383	0.1651657041661958	0.014765358354626	0.0195476357995592	0.0167764323916184
3.3351999999999977	0.0065377288725886	0.0162238835318674	0.1656194622465177	0.0147288962551505	0.0195367348254592	0.016781964395572
3.3451999999999975	0.0065445074929385	0.0161720339717262	0.1660727464139372	0.0146923571443158	0.0195265038558083	0.0167897825593098
3.3551999999999973	0.0065515614147604	0.0161207339384028	0.1665257586797252	0.0146557846917148	0.0195169569846081	0.0167998551794693
3.3651999999999975	0.0065588795185631	0.0160700269931316	0.1669786802392964	0.0146192220428669	0.019508105790476	0.016812147946191
3.3751999999999973	0.0065664506352546	0.0160199550223447	0.167431670790263	0.0145827117276582	0.0194999593434297	0.0168266239464525
3.3851999999999975	0.006574263545232	0.0159705581735846	0.1678848679434808	0.0145462955718848	0.0194925242211204	0.0168432436726607
3.3951999999999973	0.006582306977304	0.0159218747965138	0.1683383867286504	0.0145100146120378	0.019485804534413	0.0168619650367313
3.4051999999999976	0.0065905696075694	0.0158739413891355	0.1687923191960351	0.0144739090134371	0.0194798019621865	0.0168827433898576
3.4151999999999973	0.0065990400583816	0.0158267925493105	0.1692467341157384	0.0144380179918036	0.0194745157951902	0.016905531548143
3.4251999999999976	0.0066077068975315	0.015780460931624	0.1697016767757374	0.0144023797383465	0.0194699429887348	0.0169302798242525
3.4351999999999974	0.0066165586377904	0.015734977209618	0.1701571688795308	0.0143670313484429	0.0194660782239548	0.0169569360652282
3.4451999999999976	0.0066255837369461	0.0156903700433684	0.1706132085438643	0.0143320087539964	0.0194629139773334	0.0169854456966084
3.4551999999999974	0.0066347705984638	0.0156466660523454	0.171069770396545	0.0142973466595835	0.0194604405981474	0.0170157517729741
3.4651999999999976	0.0066441075728936	0.0156038897934591	0.1715268057738225	0.0142630784825242	0.0194586463934488	0.0170477950350142
3.4751999999999974	0.0066535829601341	0.0155620637441763	0.1719842430162416	0.0142292362970335	0.019457517720157	0.0170815139731599
3.4851999999999976	0.0066631850126523	0.0155212082905949	0.1724419878612834	0.0141958507826152	0.0194570390837918	0.017116844897794
3.4951999999999974	0.0066729019397419	0.0154813417203928	0.172899923930573	0.0141629511768525	0.0194571932433352	0.0171537220160204
3.505199999999997	0.0066827219128879	0.0154424802206021	0.1733579133089683	0.0141305652327266	0.0194579613216679	0.0171920775149754
3.5151999999999974	0.0066926330722842	0.0154046378801836	0.1738157972124641	0.0140987191805729	0.0194593229209919	0.0172318416516675
3.5251999999999972	0.0067026235345329	0.0153678266973859	0.1742733967414982	0.0140674376947508	0.0194612562426223	0.017272942849331
3.5351999999999975	0.0067126814015349	0.0153320565918665	0.174730513715909	0.0140367438650809	0.0194637382104922	0.0173153078002593
3.5451999999999972	0.0067227947705684	0.0152973354215539	0.1751869315874182	0.0140066591730779	0.0194667445976748	0.0173588615750635
3.5551999999999975	0.0067329517455431	0.0152636690042305	0.1756424164251073	0.0139772034729879	0.0194702501551759	0.0174035277382789
3.5651999999999973	0.0067431404494085	0.015231061143823	0.1760967179689211	0.013948394977617	0.0194742287422074	0.0174492284702392
3.5751999999999975	0.0067533490376836	0.0151995136613763	0.1765495707458542	0.0139202502489091	0.0194786534571119	0.0174958846951357
3.5851999999999973	0.0067635657130616	0.0151690264306808	0.1770006952432681	0.0138927841931998	0.0194834967680846	0.0175434162151708
3.5951999999999975	0.0067737787410306	0.0151395974185013	0.1774497991338055	0.0138660100610422	0.0194887306428235	0.0175917418506969
3.6051999999999973	0.0067839764664352	0.0151112227293354	0.1778965785465653	0.0138399394514875	0.0194943266762634	0.0176407795861964
3.6151999999999975	0.0067941473308967	0.015083896654599	0.1783407193794714	0.0138145823207099	0.0195002562156159	0.0176904467219206
3.6251999999999973	0.0068042798909962	0.0150576117261072	0.1787818986480457	0.0137899469948828	0.0195064904820466	0.0177406600309656
3.635199999999997	0.0068143628371198	0.0150323587736957	0.1792197858660207	0.0137660401872287	0.0195130006884209	0.0177913359215273
3.6451999999999973	0.0068243850128565	0.0150081269868039	0.1796540444533093	0.0137428670191697	0.0195197581526054	0.0178423906040374
3.655199999999997	0.0068343354348443	0.0149849039798291	0.1800843331667697	0.0137204310454958	0.0195267344058238	0.017893740262849
3.6651999999999973	0.0068442033129564	0.0149626758610484	0.1805103075490841	0.0136987342834629	0.0195339012955748	0.0179453012320935
3.675199999999997	0.0068539780707276	0.0149414273048959	0.1809316213910181	0.0136777772457224	0.0195412310826498	0.0179969901752872
3.6851999999999974	0.0068636493659225	0.014921141627375	0.1813479282023212	0.0136575589769734	0.0195486965318643	0.0180487242682229
3.695199999999997	0.0068732071111564	0.0149018008643672	0.1817588826864902	0.0136380770942128	0.0195562709962375	0.0181004213846448
3.7051999999999974	0.00688264149448	0.0148833858525761	0.182164142214553	0.013619327830435	0.0195639284945048	0.0181520002841749
3.715199999999997	0.0068919429998446	0.0148658763128179	0.1825633682929862	0.0136013060816101	0.0195716437819991	0.0182033808019232
3.7251999999999974	0.0069011024273633	0.0148492509353439	0.1829562280208309	0.0135840054567364	0.0195793924150624	0.0182544840391811
3.735199999999997	0.0069101109132892	0.0148334874668619	0.1833423955309168	0.0135674183307447	0.0195871508092352	0.0183052325545591
3.7451999999999974	0.0069189599496332	0.014818562798907	0.1837215534098313	0.0135515359000082	0.0195948962915166	0.0183555505548997
3.755199999999997	0.0069276414033466	0.01480445305721	0.1840933940909591	0.0135363482402022	0.0196026071470047	0.0184053640852797
3.7651999999999974	0.0069361475349923	0.0147911336917109	0.1844576212146243	0.0135218443662504	0.019610262660225	0.018454601217411
3.7751999999999972	0.0069444710168214	0.014778579566881	0.1848139509490971	0.0135080122940983	0.0196178431514466	0.0185031922357464
3.785199999999997	0.0069526049501729	0.0147667650520273	0.185162113265972	0.0134948391040698	0.0196253300082808	0.0185510698205797
3.7951999999999972	0.0069605428821134	0.0147556641112661	0.1855018531632245	0.0134823110055841	0.0196327057128444	0.0185981692274103
3.805199999999997	0.0069682788212311	0.0147452503928666	0.185832931829191	0.0134704134030319	0.0196399538647451	0.0186444284618043
3.8151999999999973	0.0069758072525018	0.0147354973176712	0.1861551277407543	0.0134591309626197	0.0196470592001092	0.0186897884489496
3.825199999999997	0.0069831231511425	0.0147263781663001	0.1864682376890566	0.0134484476799919	0.0196540076068183	0.0187341931970675
3.8351999999999973	0.0069902219953782	0.0147178661648395	0.1867720777261064	0.0134383469484328	0.0196607861360601	0.0187775899538168
3.845199999999997	0.0069970997780498	0.0147099345686989	0.187066484025907	0.0134288116274363	0.0196673830102403	0.0188199293548126
3.8551999999999973	0.007003753016998	0.0147025567443204	0.1873513136543773	0.0134198241114207	0.019673787627238	0.0188611655633646
3.865199999999997	0.0070101787641528	0.0146957062484265	0.1876264452433431	0.0134113663983668	0.0196799905609367	0.0189012564005207
3.8751999999999973	0.007016374613255	0.0146893569044997	0.187891779564979	0.0134034201581662	0.0196859835579266	0.0189401634644655
3.885199999999997	0.0070223387061346	0.0146834828761923	0.1881472400040069	0.013395966800465	0.0196917595302798	0.0189778522382959
3.8951999999999973	0.0070280697374626	0.0146780587373609	0.1883927729255577	0.0133889875417885	0.0196973125443364	0.019014292185157
3.905199999999997	0.0070335669578862	0.014673059538421	0.1886283479369044	0.0133824634717167	0.0197026378054935	0.0190494568297025
3.915199999999997	0.0070388301754385	0.014668460868718	0.1888539580413502	0.0133763756178598	0.0197077316390198	0.0190833238248382
3.925199999999997	0.0070438597551039	0.014664238914615	0.1890696196824657	0.0133707050093641	0.01971259146692	0.0191158750027367
3.935199999999997	0.0070486566164033	0.0146603705129961	0.1892753726767031	0.0133654327386506	0.019717215780857	0.0191470964091483
3.945199999999997	0.0070532222288547	0.0146568331998701	0.1894712800322367	0.0133605400210772	0.0197216041111312	0.0191769783200627
3.955199999999997	0.0070575586051585	0.0146536052537388	0.1896574276518243	0.0133560082521991	0.0197257569917228	0.0192055152397882
3.965199999999997	0.0070616682919537	0.0146506657333868	0.1898339239177356	0.0133518190623031	0.0197296759214287	0.0192327058795259
3.975199999999997	0.0070655543580094	0.014647994509785	0.1900008991576114	0.0133479543678851	0.0197333633211598	0.0192585531155925
3.985199999999997	0.0070692203797486	0.0146455722918911	0.1901585049915903	0.0133443964197479	0.0197368224874927	0.0192830639266512
3.995199999999997	0.0070726704240601	0.0146433806462747	0.1903069135630169	0.0133411278474107	0.0197400575426025	0.0193062493096607
4.005199999999998	0.0070759090284068	0.0146414020106567	0.1904463166571967	0.0133381316995567	0.0197430733807377	0.0193281241746481
4.015199999999997	0.0070789411782934	0.0146396197015914	0.1905769247146172	0.0133353914802954	0.0197458756114388	0.0193487072187504
4.025199999999997	0.0070817722822046	0.0146380179166051	0.1906989657465694	0.0133328911810928	0.0197484704997698	0.019368020780215
4.035199999999997	0.0070844081441667	0.0146365817311437	0.1908126841621173	0.0133306153083119	0.0197508649038997	0.019386090673223
4.045199999999998	0.0070868549341204	0.0146352970906927	0.1909183395159213	0.0133285489063937	0.0197530662104575	0.0194029460045338
